<mxfile host="app.diagrams.net" modified="2020-09-07T15:02:57.938Z" agent="5.0 (Macintosh; Intel Mac OS X 10_15_6) AppleWebKit/537.36 (KHTML, like Gecko) Chrome/85.0.4183.83 Safari/537.36" etag="uWIeqlAMncuDyRZEx9G9" version="13.6.6" type="github">
  <diagram id="5d85YtfUtr9XSAqdXYxp" name="ページ1">
    <mxGraphModel dx="946" dy="591" grid="1" gridSize="10" guides="1" tooltips="1" connect="1" arrows="1" fold="1" page="1" pageScale="1" pageWidth="827" pageHeight="1169" math="0" shadow="0">
      <root>
        <mxCell id="0" />
        <mxCell id="1" parent="0" />
        <mxCell id="evoJNXDT1guMXmTG7ENF-1" value="" style="rounded=0;whiteSpace=wrap;html=1;" vertex="1" parent="1">
          <mxGeometry x="80" y="10" width="200" height="390" as="geometry" />
        </mxCell>
        <mxCell id="evoJNXDT1guMXmTG7ENF-2" value="profile_image" style="ellipse;whiteSpace=wrap;html=1;aspect=fixed;" vertex="1" parent="1">
          <mxGeometry x="140" y="70" width="80" height="80" as="geometry" />
        </mxCell>
        <mxCell id="evoJNXDT1guMXmTG7ENF-3" value="name" style="text;html=1;fillColor=none;align=center;verticalAlign=middle;whiteSpace=wrap;rounded=0;strokeColor=#000000;" vertex="1" parent="1">
          <mxGeometry x="105" y="190" width="150" height="20" as="geometry" />
        </mxCell>
        <mxCell id="evoJNXDT1guMXmTG7ENF-4" value="" style="edgeStyle=orthogonalEdgeStyle;rounded=0;orthogonalLoop=1;jettySize=auto;html=1;" edge="1" parent="1" source="evoJNXDT1guMXmTG7ENF-5" target="evoJNXDT1guMXmTG7ENF-6">
          <mxGeometry relative="1" as="geometry" />
        </mxCell>
        <mxCell id="evoJNXDT1guMXmTG7ENF-5" value="email" style="text;html=1;fillColor=none;align=center;verticalAlign=middle;whiteSpace=wrap;rounded=0;strokeColor=#000000;" vertex="1" parent="1">
          <mxGeometry x="105" y="240" width="150" height="20" as="geometry" />
        </mxCell>
        <mxCell id="evoJNXDT1guMXmTG7ENF-6" value="password" style="text;html=1;fillColor=none;align=center;verticalAlign=middle;whiteSpace=wrap;rounded=0;strokeColor=#000000;allowArrows=1;" vertex="1" parent="1">
          <mxGeometry x="105" y="290" width="150" height="20" as="geometry" />
        </mxCell>
      </root>
    </mxGraphModel>
  </diagram>
</mxfile>
